<svg width="20" height="20" viewBox="0 0 20 20" fill="none" xmlns="http://www.w3.org/2000/svg">
<path d="M10.8332 13.3333C10.8332 13.7936 10.4601 14.1667 9.99984 14.1667C9.5396 14.1667 9.1665 13.7936 9.1665 13.3333C9.1665 12.8731 9.5396 12.5 9.99984 12.5C10.4601 12.5 10.8332 12.8731 10.8332 13.3333Z" fill="#FF1919"/>
<path d="M10.6248 5.83333C10.6248 5.48816 10.345 5.20833 9.99984 5.20833C9.65466 5.20833 9.37484 5.48816 9.37484 5.83333V10.8333C9.37484 11.1785 9.65466 11.4583 9.99984 11.4583C10.345 11.4583 10.6248 11.1785 10.6248 10.8333V5.83333Z" fill="#FF1919"/>
<path fill-rule="evenodd" clip-rule="evenodd" d="M9.99984 1.04167C5.05229 1.04167 1.0415 5.05245 1.0415 10C1.0415 14.9476 5.05229 18.9583 9.99984 18.9583C14.9474 18.9583 18.9582 14.9476 18.9582 10C18.9582 5.05245 14.9474 1.04167 9.99984 1.04167ZM2.2915 10C2.2915 5.74281 5.74264 2.29167 9.99984 2.29167C14.257 2.29167 17.7082 5.74281 17.7082 10C17.7082 14.2572 14.257 17.7083 9.99984 17.7083C5.74264 17.7083 2.2915 14.2572 2.2915 10Z" fill="#FF1919"/>
</svg>
