<svg width="24" height="24" viewBox="0 0 24 24" fill="none" xmlns="http://www.w3.org/2000/svg">
<path d="M20.4726 3H19.8106C18.7349 3 17.6753 3.41259 16.8672 4.13421C17.276 4.83839 17.5059 5.63495 17.5332 6.46678C18.365 6.49403 19.1616 6.72402 19.8661 7.1331C20.5714 6.35443 21 5.32126 21 4.18933V3.52734C21 3.23611 20.7639 3 20.4726 3Z" fill="white"/>
<path d="M20.1494 8.67157C19.4057 7.92819 18.4172 7.51883 17.3658 7.51883C17.0178 7.51883 16.6768 7.56397 16.3492 7.65098C16.4362 7.32329 16.4813 6.98221 16.4813 6.63409C16.4813 5.5825 16.0718 4.59398 15.3284 3.85088C14.9609 3.48312 14.6324 3.15458 14.6324 3.15458C14.4265 2.94864 14.0925 2.94864 13.8866 3.15458L13.1905 3.85067C12.6201 4.42084 12.2466 5.13549 12.1035 5.9123C12.2309 6.03967 12.4499 6.25877 12.6854 6.49445C13.5882 7.39691 14.1027 8.5853 14.1443 9.85598C15.4145 9.89757 16.6027 10.4118 17.506 11.3147L18.0879 11.8967C18.8643 11.7535 19.5789 11.3801 20.1495 10.8098L20.8457 10.1136C21.0516 9.90766 21.0516 9.57378 20.8457 9.36784L20.1494 8.67157Z" fill="white"/>
<path d="M16.7602 12.0606C16.0165 11.3172 15.0281 10.9079 13.9766 10.9079C13.6287 10.9079 13.2876 10.953 12.96 11.04C13.047 10.7123 13.0922 10.3712 13.0922 10.0231C13.0922 8.97154 12.6826 7.98302 11.9392 7.23992C11.5717 6.87215 11.2432 6.54362 11.2432 6.54362C11.0373 6.33767 10.7034 6.33767 10.4974 6.54362L9.80135 7.23971C9.23094 7.80987 8.85744 8.52453 8.71436 9.30134L9.29615 9.88339C10.1992 10.786 10.7137 11.9742 10.7551 13.245C12.0253 13.2866 13.2136 13.8009 14.1168 14.7038L14.6988 15.2857C15.4752 15.1426 16.1898 14.7691 16.7603 14.1988L17.4565 13.5027C17.6624 13.2967 17.6624 12.9629 17.4565 12.7569L16.7602 12.0606Z" fill="white"/>
<path d="M3.15446 20.0997C2.94851 20.3057 2.94851 20.6396 3.15446 20.8455C3.36037 21.0514 3.69428 21.0514 3.90023 20.8455L6.73536 18.0104L5.98966 17.2645L3.15446 20.0997Z" fill="white"/>
<path d="M13.3714 15.4496C12.6277 14.7063 11.6393 14.2969 10.5878 14.2969C10.2398 14.2969 9.89879 14.342 9.57117 14.429C9.65818 14.1013 9.70335 13.7602 9.70335 13.4121C9.70335 12.3605 9.29382 11.372 8.55041 10.6289L7.85442 9.93259C7.68061 9.75874 7.46018 9.77811 7.48152 9.77811C7.34167 9.77811 7.20755 9.83369 7.10865 9.93259L6.41252 10.6287C4.89104 12.1495 4.8588 14.6424 6.41245 16.1954L7.8046 17.5879C9.35854 19.1411 11.8489 19.1097 13.3715 17.5878L14.0677 16.8916C14.2737 16.6857 14.2734 16.3516 14.0677 16.1458L13.3714 15.4496Z" fill="white"/>
</svg>
