<svg width="24" height="25" viewBox="0 0 24 25" fill="none" xmlns="http://www.w3.org/2000/svg">
<g clip-path="url(#clip0_13_1129)">
<path d="M12.0009 17.2185C11.2916 17.7584 9.82715 19.0935 9.82715 20.9125C9.82715 22.1134 10.8018 23.0904 11.9998 23.0904C13.1978 23.0904 14.1725 22.1134 14.1725 20.9125C14.1725 19.1898 12.7071 17.792 12.0009 17.2185Z" fill="white"/>
<path d="M17.0922 4.67715C16.8287 4.37917 16.3739 4.36112 16.087 4.62896L12.7783 7.71704V1.24993C12.7783 0.708573 12.1256 0.304089 11.6368 0.599776C11.5442 0.655745 9.34541 1.99843 7.12368 4.43673C4.42232 7.40148 2.58252 11.0113 2.58252 15.0596C2.58252 20.2651 6.80722 24.5 12 24.5C10.0266 24.5 8.42113 22.8906 8.42113 20.9124C8.42113 17.7159 11.5246 15.8231 11.6567 15.7441C11.8883 15.6057 12.1782 15.6122 12.4034 15.7605C12.5331 15.846 15.5789 17.889 15.5789 20.9124C15.5789 22.8906 13.9735 24.5 12 24.5C17.1928 24.5 21.4176 20.2651 21.4176 15.0596C21.4176 11.1289 19.6831 7.60585 17.0922 4.67715Z" fill="white"/>
</g>
<defs>
<clipPath id="clip0_13_1129">
<rect width="24" height="24" fill="white" transform="translate(0 0.5)"/>
</clipPath>
</defs>
</svg>
