<svg width="32" height="32" viewBox="0 0 32 32" fill="none" xmlns="http://www.w3.org/2000/svg">
<path fill-rule="evenodd" clip-rule="evenodd" d="M9.97754 12.6812C10.5298 12.6812 10.9775 13.1289 10.9775 13.6812V22.6061C10.9775 23.1584 10.5298 23.6061 9.97754 23.6061C9.42526 23.6061 8.97754 23.1584 8.97754 22.6061V13.6812C8.97754 13.1289 9.42526 12.6812 9.97754 12.6812Z" fill="#6B6B6B"/>
<path fill-rule="evenodd" clip-rule="evenodd" d="M16.0493 8.40982C16.6016 8.40982 17.0493 8.85753 17.0493 9.40982V22.6071C17.0493 23.1593 16.6016 23.6071 16.0493 23.6071C15.497 23.6071 15.0493 23.1593 15.0493 22.6071V9.40982C15.0493 8.85753 15.497 8.40982 16.0493 8.40982Z" fill="#6B6B6B"/>
<path fill-rule="evenodd" clip-rule="evenodd" d="M22.021 17.3976C22.5733 17.3976 23.021 17.8453 23.021 18.3976V22.6068C23.021 23.159 22.5733 23.6068 22.021 23.6068C21.4687 23.6068 21.021 23.159 21.021 22.6068V18.3976C21.021 17.8453 21.4687 17.3976 22.021 17.3976Z" fill="#6B6B6B"/>
<path fill-rule="evenodd" clip-rule="evenodd" d="M6.61417 6.61393C4.88212 8.346 4.06689 11.2365 4.06689 16.0491C4.06689 20.8617 4.88212 23.7523 6.61417 25.4843C8.34624 27.2164 11.2367 28.0316 16.0494 28.0316C20.8619 28.0316 23.7524 27.2164 25.4846 25.4843C27.2166 23.7523 28.0318 20.8617 28.0318 16.0491C28.0318 11.2365 27.2166 8.346 25.4846 6.61393C23.7524 4.88188 20.8619 4.06665 16.0494 4.06665C11.2367 4.06665 8.34624 4.88188 6.61417 6.61393ZM5.19996 5.19972C7.52509 2.87458 11.1258 2.06665 16.0494 2.06665C20.9728 2.06665 24.5736 2.87458 26.8987 5.19972C29.2239 7.52485 30.0318 11.1256 30.0318 16.0491C30.0318 20.9727 29.2239 24.5733 26.8987 26.8985C24.5736 29.2236 20.9728 30.0316 16.0494 30.0316C11.1258 30.0316 7.52509 29.2236 5.19996 26.8985C2.87483 24.5733 2.06689 20.9727 2.06689 16.0491C2.06689 11.1256 2.87483 7.52485 5.19996 5.19972Z" fill="#6B6B6B"/>
</svg>
