<svg width="24" height="24" viewBox="0 0 24 24" fill="none" xmlns="http://www.w3.org/2000/svg">
<path d="M19.6258 16.1328C19.0146 17.1112 18.1883 17.8448 17.2551 18.3328C19.6567 13.1939 14.7609 8.16966 12.3228 4.08492C12.6568 3.57845 12.9693 3.08104 13.2417 2.5944C13.6861 1.80043 14.8314 1.80302 15.2749 2.59526C17.5387 6.64139 22.571 11.4181 19.6258 16.1328Z" fill="white"/>
<path d="M11.4548 3.96262C10.9691 3.09464 9.71453 3.09145 9.22777 3.96154C6.74802 8.39348 1.23409 13.627 4.46074 18.792C7.13272 23.0692 13.5491 23.0694 16.2212 18.792C19.4476 13.6274 13.9348 8.3946 11.4548 3.96262ZM8.80738 20.2464C7.6688 19.8837 6.73134 19.1656 6.0963 18.1696C5.38539 17.0546 5.08612 15.6656 5.20694 14.0414C5.32203 12.4932 7.5844 12.4801 7.72824 14.0247C7.88345 15.6906 8.66462 17.0826 9.92781 17.9441C11.1535 18.78 10.22 20.6963 8.80738 20.2464Z" fill="white"/>
<path d="M9.5392 18.5138C8.10321 17.5345 7.21614 15.9629 7.04152 14.0886C6.97553 13.3794 5.94734 13.3851 5.89467 14.0925C5.68988 16.8464 6.857 18.9013 9.0167 19.5892C9.6739 19.7987 10.1098 18.903 9.5392 18.5138Z" fill="white"/>
</svg>
