<svg width="24" height="24" viewBox="0 0 24 24" fill="none" xmlns="http://www.w3.org/2000/svg">
<path d="M16.1644 6.73859C16.2017 6.64752 16.2733 6.57479 16.3638 6.53611C16.4543 6.49743 16.5564 6.4959 16.648 6.53186C16.7396 6.56782 16.8134 6.63837 16.8534 6.72828C16.8934 6.8182 16.8965 6.92024 16.8619 7.01237C16.635 7.5979 15.6207 10.182 15.4181 10.7061C16.657 10.6683 18.6765 10.1578 18.8719 7.08361C18.816 5.56798 18.638 4.05934 18.3394 2.57236C18.2896 2.35056 18.1854 2.14461 18.0364 1.97301C17.8873 1.80141 17.6979 1.66953 17.4852 1.58922C17.2725 1.50891 17.0433 1.48269 16.818 1.51291C16.5926 1.54313 16.3784 1.62885 16.1944 1.76236C15.0994 2.56861 13.6106 3.80611 12.7519 5.14486C12.3401 5.81239 12.1382 6.58817 12.1723 7.37176C12.2064 8.15535 12.4749 8.91065 12.9432 9.53988C13.2057 9.89134 13.5457 10.1775 13.9369 10.3761L11.5856 16.3799L9.44063 13.4249C10.5673 12.2266 11.528 10.1684 9.00947 7.99863C8.87064 7.90113 5.57813 5.64363 3.63188 5.26863C3.58038 5.25949 3.52754 5.26114 3.47671 5.27347C3.42587 5.2858 3.37815 5.30854 3.33656 5.34026C3.29497 5.37199 3.26041 5.41199 3.23508 5.45776C3.20975 5.50352 3.19418 5.55404 3.18938 5.60613C3.17438 5.75988 2.88938 9.36361 3.81938 11.7899C4.15354 12.6175 4.76361 13.3041 5.54616 13.7333C6.32872 14.1625 7.23562 14.3079 8.11313 14.1449C7.79647 13.704 6.00665 11.244 5.64938 10.7511C5.59404 10.6723 5.57132 10.575 5.58598 10.4798C5.60064 10.3846 5.65154 10.2987 5.72804 10.2401C5.80454 10.1815 5.90073 10.1548 5.99649 10.1655C6.09225 10.1761 6.18018 10.2234 6.2419 10.2974C6.56781 10.75 11.3119 17.2724 11.3119 17.2724V22.1249C11.3119 22.2243 11.3514 22.3197 11.4217 22.39C11.492 22.4604 11.5874 22.4999 11.6869 22.4999C11.7863 22.4999 11.8817 22.4604 11.952 22.39C12.0224 22.3197 12.0619 22.2243 12.0619 22.1249V17.2236C12.1998 16.8787 16.1644 6.73859 16.1644 6.73859Z" fill="white"/>
<path d="M17.5968 15.3186C16.731 15.3199 15.9009 15.6645 15.2887 16.2767C14.6764 16.889 14.3319 17.719 14.3306 18.5849C14.5033 22.915 20.6933 22.9135 20.8631 18.5848C20.8624 17.7188 20.518 16.8884 19.9056 16.276C19.2932 15.6636 18.4629 15.3193 17.5968 15.3186ZM19.1456 18.0299L17.5031 19.6724C17.4326 19.7418 17.3376 19.7807 17.2387 19.7807C17.1398 19.7807 17.0448 19.7418 16.9743 19.6724L16.0481 18.7461C16.0133 18.7114 15.9857 18.6702 15.9669 18.6248C15.9481 18.5795 15.9384 18.5308 15.9384 18.4817C15.9384 18.4326 15.9481 18.384 15.9669 18.3386C15.9857 18.2933 16.0133 18.252 16.0481 18.2174C16.1189 18.1471 16.2146 18.1077 16.3143 18.1077C16.4141 18.1077 16.5098 18.1471 16.5806 18.2174L17.2405 18.8774L18.6168 17.4973C18.6878 17.429 18.7828 17.3913 18.8813 17.3924C18.9799 17.3934 19.074 17.4333 19.1435 17.5032C19.2129 17.5731 19.252 17.6675 19.2524 17.7661C19.2528 17.8646 19.2144 17.9594 19.1456 18.0299Z" fill="white"/>
</svg>
