<svg width="20" height="20" viewBox="0 0 20 20" fill="none" xmlns="http://www.w3.org/2000/svg">
<path d="M14.6321 7.91689C14.8624 7.65972 14.8406 7.2646 14.5834 7.03436C14.3262 6.80411 13.9311 6.82594 13.7009 7.08311L10.8932 10.2191C10.3243 10.8545 9.94117 11.2802 9.6136 11.5556C9.30156 11.8178 9.11828 11.875 8.95817 11.875C8.79806 11.875 8.61478 11.8178 8.30274 11.5555C7.97517 11.2802 7.59204 10.8545 7.02312 10.2191L6.29882 9.41008C6.06857 9.15291 5.67345 9.13108 5.41628 9.36132C5.15911 9.59157 5.13728 9.98669 5.36753 10.2439L6.12277 11.0874C6.65265 11.6793 7.09462 12.173 7.49846 12.5124C7.92566 12.8715 8.38644 13.125 8.95817 13.125C9.5299 13.125 9.99068 12.8715 10.4179 12.5124C10.8217 12.173 11.2637 11.6793 11.7935 11.0875L14.6321 7.91689Z" fill="#1CAE54"/>
<path fill-rule="evenodd" clip-rule="evenodd" d="M9.99984 1.04167C5.05229 1.04167 1.0415 5.05245 1.0415 10C1.0415 14.9476 5.05229 18.9583 9.99984 18.9583C14.9474 18.9583 18.9582 14.9476 18.9582 10C18.9582 5.05245 14.9474 1.04167 9.99984 1.04167ZM2.2915 10C2.2915 5.74281 5.74264 2.29167 9.99984 2.29167C14.257 2.29167 17.7082 5.74281 17.7082 10C17.7082 14.2572 14.257 17.7083 9.99984 17.7083C5.74264 17.7083 2.2915 14.2572 2.2915 10Z" fill="#1CAE54"/>
</svg>
