<svg width="25" height="24" viewBox="0 0 25 24" fill="none" xmlns="http://www.w3.org/2000/svg">
<path fill-rule="evenodd" clip-rule="evenodd" d="M9.08093 11.4129C7.80893 11.4129 6.77393 10.3779 6.77393 9.10588C6.77393 7.83187 7.80893 6.79688 9.08093 6.79688C10.3539 6.79787 11.3889 7.83388 11.3889 9.10588C11.3889 10.3779 10.3529 11.4129 9.08093 11.4129ZM9.07993 8.29688C8.63593 8.29688 8.27393 8.65887 8.27393 9.10588C8.27393 9.55088 8.63593 9.91288 9.08093 9.91288C9.52693 9.91288 9.88893 9.55088 9.88893 9.10588C9.88893 8.65987 9.52593 8.29787 9.07993 8.29688Z" fill="white"/>
<path d="M6.56878 17.208C6.45678 17.208 6.34178 17.183 6.23478 17.129C5.86478 16.944 5.71478 16.496 5.89778 16.126C6.00278 15.915 6.96278 14.072 8.56378 14.072C9.38778 14.072 9.99077 14.52 10.4758 14.882C10.9478 15.232 11.2568 15.447 11.6598 15.447C11.9448 15.443 12.6838 14.554 13.0808 14.075C13.9278 13.055 14.8048 11.999 15.9218 11.999C17.8358 11.999 19.0258 14.544 19.1548 14.834C19.3228 15.212 19.1538 15.654 18.7758 15.823C18.4008 15.994 17.9548 15.824 17.7848 15.446C17.4998 14.811 16.6678 13.499 15.9218 13.499C15.5097 13.499 14.7454 14.4187 14.2384 15.0287L14.2348 15.033C13.4178 16.018 12.6458 16.947 11.6598 16.947C10.7398 16.947 10.0968 16.469 9.58078 16.085C9.15278 15.768 8.87578 15.572 8.56378 15.572C8.02878 15.572 7.44178 16.396 7.24078 16.794C7.10878 17.057 6.84378 17.208 6.56878 17.208Z" fill="white"/>
<path fill-rule="evenodd" clip-rule="evenodd" d="M2.5 12C2.5 19.383 5.117 22 12.5 22C19.883 22 22.5 19.383 22.5 12C22.5 4.617 19.883 2 12.5 2C5.117 2 2.5 4.617 2.5 12ZM4 12C4 5.486 5.986 3.5 12.5 3.5C19.014 3.5 21 5.486 21 12C21 18.514 19.014 20.5 12.5 20.5C5.986 20.5 4 18.514 4 12Z" fill="white"/>
</svg>
