<svg width="20" height="20" viewBox="0 0 20 20" fill="none" xmlns="http://www.w3.org/2000/svg">
<path fill-rule="evenodd" clip-rule="evenodd" d="M13.0967 14.1445H7.08008C6.73508 14.1445 6.45508 13.8645 6.45508 13.5195C6.45508 13.1745 6.73508 12.8945 7.08008 12.8945H13.0967C13.4417 12.8945 13.7217 13.1745 13.7217 13.5195C13.7217 13.8645 13.4417 14.1445 13.0967 14.1445Z" fill="white"/>
<path fill-rule="evenodd" clip-rule="evenodd" d="M13.0967 10.6543H7.08008C6.73508 10.6543 6.45508 10.3743 6.45508 10.0293C6.45508 9.6843 6.73508 9.4043 7.08008 9.4043H13.0967C13.4417 9.4043 13.7217 9.6843 13.7217 10.0293C13.7217 10.3743 13.4417 10.6543 13.0967 10.6543Z" fill="white"/>
<path fill-rule="evenodd" clip-rule="evenodd" d="M9.37494 7.17383H7.0791C6.7341 7.17383 6.4541 6.89383 6.4541 6.54883C6.4541 6.20383 6.7341 5.92383 7.0791 5.92383H9.37494C9.71994 5.92383 9.99994 6.20383 9.99994 6.54883C9.99994 6.89383 9.71994 7.17383 9.37494 7.17383Z" fill="white"/>
<mask id="mask0_3401_26433" style="mask-type:luminance" maskUnits="userSpaceOnUse" x="2" y="1" width="16" height="18">
<path fill-rule="evenodd" clip-rule="evenodd" d="M2.5 1.66602H17.6372V18.2575H2.5V1.66602Z" fill="white"/>
</mask>
<g mask="url(#mask0_3401_26433)">
<path fill-rule="evenodd" clip-rule="evenodd" d="M13.2575 2.91602L6.85 2.91935C4.91 2.93102 3.75 4.13102 3.75 6.13018V13.7935C3.75 15.806 4.92083 17.0077 6.88 17.0077L13.2875 17.0052C15.2275 16.9935 16.3875 15.7918 16.3875 13.7935V6.13018C16.3875 4.11768 15.2175 2.91602 13.2575 2.91602ZM6.88083 18.2577C4.26083 18.2577 2.5 16.4635 2.5 13.7935V6.13018C2.5 3.43602 4.20583 1.68518 6.84583 1.66935L13.2567 1.66602H13.2575C15.8775 1.66602 17.6375 3.46018 17.6375 6.13018V13.7935C17.6375 16.4868 15.9317 18.2385 13.2917 18.2552L6.88083 18.2577Z" fill="white"/>
</g>
</svg>
