<svg width="20" height="21" viewBox="0 0 20 21" fill="none" xmlns="http://www.w3.org/2000/svg">
<g clip-path="url(#clip0_6_167)">
<path d="M13.4798 0.5C13.4798 0.5 15.2467 4.8225 7.67425 7.72591C3.55956 9.30309 0.399234 13.3456 4.17266 19.5902C4.48516 16.799 5.82515 10.6446 11.587 9.24025C11.587 9.24025 6.22422 11.2455 5.75049 20.3227C8.50611 20.7096 14.9689 20.9696 16.8876 15.3612C19.4214 7.95121 13.4798 0.5 13.4798 0.5Z" fill="#1EA64B"/>
<path d="M5.75299 20.2849C11.603 17.9502 15.8595 12.4809 16.447 5.95186C15.2511 2.72592 13.4798 0.5 13.4798 0.5C13.4798 0.5 15.2467 4.8225 7.67425 7.72591C3.55956 9.30309 0.399234 13.3456 4.17266 19.5902C4.48516 16.799 5.82515 10.6446 11.587 9.24025C11.5867 9.24029 6.23985 11.2406 5.75299 20.2849Z" fill="#1CAE54"/>
<path d="M3.58888 7.86999C3.89092 7.86999 4.13577 7.62514 4.13577 7.3231C4.13577 7.02106 3.89092 6.77621 3.58888 6.77621C3.28684 6.77621 3.04199 7.02106 3.04199 7.3231C3.04199 7.62514 3.28684 7.86999 3.58888 7.86999Z" fill="#1EA64B"/>
<path d="M5.30761 7.16682C5.52334 7.16682 5.69823 6.99194 5.69823 6.77621C5.69823 6.56047 5.52334 6.38559 5.30761 6.38559C5.09188 6.38559 4.91699 6.56047 4.91699 6.77621C4.91699 6.99194 5.09188 7.16682 5.30761 7.16682Z" fill="#1CAE54"/>
<path d="M4.95604 4.04183C5.49537 4.04183 5.93258 3.60462 5.93258 3.06529C5.93258 2.52596 5.49537 2.08875 4.95604 2.08875C4.41671 2.08875 3.97949 2.52596 3.97949 3.06529C3.97949 3.60462 4.41671 4.04183 4.95604 4.04183Z" fill="#1CAE54"/>
<path d="M7.96387 5.60434C8.13646 5.60434 8.27637 5.46443 8.27637 5.29184C8.27637 5.11925 8.13646 4.97934 7.96387 4.97934C7.79128 4.97934 7.65137 5.11925 7.65137 5.29184C7.65137 5.46443 7.79128 5.60434 7.96387 5.60434Z" fill="#1CAE54"/>
<path d="M10.5815 4.43248C11.0777 4.43248 11.48 4.03024 11.48 3.53405C11.48 3.03786 11.0777 2.63562 10.5815 2.63562C10.0853 2.63562 9.68311 3.03786 9.68311 3.53405C9.68311 4.03024 10.0853 4.43248 10.5815 4.43248Z" fill="#1CAE54"/>
</g>
<defs>
<clipPath id="clip0_6_167">
<rect width="20" height="20" fill="white" transform="translate(0 0.5)"/>
</clipPath>
</defs>
</svg>
