<svg width="20" height="20" viewBox="0 0 20 20" fill="none" xmlns="http://www.w3.org/2000/svg">
<path d="M9.99996 1.66669C14.6025 1.66669 18.3333 5.39752 18.3333 10C18.3333 14.6025 14.6025 18.3334 9.99996 18.3334C5.39746 18.3334 1.66663 14.6025 1.66663 10C1.66663 5.39752 5.39746 1.66669 9.99996 1.66669ZM9.99996 3.33335C8.23185 3.33335 6.53616 4.03573 5.28591 5.28598C4.03567 6.53622 3.33329 8.23191 3.33329 10C3.33329 11.7681 4.03567 13.4638 5.28591 14.7141C6.53616 15.9643 8.23185 16.6667 9.99996 16.6667C11.7681 16.6667 13.4638 15.9643 14.714 14.7141C15.9642 13.4638 16.6666 11.7681 16.6666 10C16.6666 8.23191 15.9642 6.53622 14.714 5.28598C13.4638 4.03573 11.7681 3.33335 9.99996 3.33335ZM9.99163 8.33335C10.4566 8.33335 10.8333 8.71002 10.8333 9.17502V13.445C10.9922 13.5367 11.1163 13.6783 11.1865 13.8478C11.2567 14.0173 11.269 14.2052 11.2215 14.3824C11.174 14.5596 11.0694 14.7161 10.9239 14.8278C10.7784 14.9395 10.6001 15 10.4166 15H10.0083C9.89776 15 9.78832 14.9783 9.6862 14.936C9.58408 14.8937 9.4913 14.8317 9.41314 14.7535C9.33499 14.6753 9.27299 14.5826 9.23069 14.4804C9.1884 14.3783 9.16663 14.2689 9.16663 14.1584V10C8.94561 10 8.73365 9.91222 8.57737 9.75594C8.42109 9.59966 8.33329 9.3877 8.33329 9.16669C8.33329 8.94567 8.42109 8.73371 8.57737 8.57743C8.73365 8.42115 8.94561 8.33335 9.16663 8.33335H9.99163ZM9.99996 5.83335C10.221 5.83335 10.4329 5.92115 10.5892 6.07743C10.7455 6.23371 10.8333 6.44567 10.8333 6.66669C10.8333 6.8877 10.7455 7.09966 10.5892 7.25594C10.4329 7.41222 10.221 7.50002 9.99996 7.50002C9.77895 7.50002 9.56698 7.41222 9.4107 7.25594C9.25442 7.09966 9.16663 6.8877 9.16663 6.66669C9.16663 6.44567 9.25442 6.23371 9.4107 6.07743C9.56698 5.92115 9.77895 5.83335 9.99996 5.83335Z" fill="#23252B"/>
</svg>
