<svg width="24" height="24" viewBox="0 0 24 24" fill="none" xmlns="http://www.w3.org/2000/svg">
<path d="M17.9053 6.42999C19.0622 6.42999 20 5.4383 20 4.21499C20 2.99169 19.0622 2 17.9053 2C16.7485 2 15.8107 2.99169 15.8107 4.21499C15.8107 4.99254 16.1899 5.67609 16.7631 6.07128L15.4294 9.85015C15.1903 9.7934 14.9419 9.76242 14.6865 9.76242C13.8556 9.76242 13.0952 10.0802 12.5068 10.6064L8.11985 6.42246C8.3094 6.07774 8.41855 5.67744 8.41855 5.25002C8.41855 3.95974 7.42945 2.91381 6.20928 2.91381C4.9891 2.91381 4 3.95974 4 5.25002C4 6.5403 4.9891 7.58622 6.20928 7.58622C6.69506 7.58622 7.14389 7.42004 7.50858 7.13902L11.8951 11.3226C11.5248 11.8958 11.308 12.5886 11.308 13.3351C11.308 14.2356 11.6238 15.0577 12.1438 15.686L9.20651 18.0697C8.84082 17.7453 8.36954 17.5496 7.85482 17.5496C6.6926 17.5496 5.7505 18.5458 5.7505 19.7748C5.7505 21.0038 6.69269 22 7.85482 22C9.01705 22 9.95915 21.0037 9.95915 19.7748C9.95915 19.4388 9.88833 19.1206 9.76239 18.8351L12.8476 16.3315C13.3769 16.6955 14.0081 16.9077 14.6866 16.9077C16.5525 16.9077 18.0651 15.3082 18.0651 13.3351C18.0651 11.9734 17.3445 10.7898 16.2847 10.187L17.6182 6.40876C17.7121 6.42237 17.8079 6.42999 17.9053 6.42999Z" fill="white"/>
</svg>
