<svg width="20" height="20" viewBox="0 0 20 20" fill="none" xmlns="http://www.w3.org/2000/svg">
<path fill-rule="evenodd" clip-rule="evenodd" d="M8.18417 2.67665C8.43083 2.10165 9.0675 1.57998 9.87083 1.73498C11.0992 1.97082 12.4033 2.90248 12.495 4.41332L12.5 4.58332V6.66665H14.5042C14.9787 6.66663 15.4477 6.7679 15.8799 6.96371C16.3121 7.15952 16.6975 7.44534 17.0104 7.80207C17.3233 8.1588 17.5564 8.57821 17.6941 9.03226C17.8319 9.48632 17.8711 9.96455 17.8092 10.435L17.7842 10.5967L17.0258 14.7633C16.8914 15.5034 16.5106 16.1762 15.9454 16.6724C15.3802 17.1686 14.6637 17.4591 13.9125 17.4967L13.7467 17.5H5C4.36232 17.5 3.74874 17.2564 3.28478 16.8189C2.82083 16.3814 2.54158 15.7832 2.50417 15.1467L2.5 15V9.99998C2.49996 9.36231 2.7436 8.74872 3.18107 8.28477C3.61854 7.82081 4.21676 7.54156 4.85333 7.50415L5 7.49999H6.11667L8.18417 2.67665ZM5.83333 9.16665H5C4.77899 9.16665 4.56702 9.25445 4.41074 9.41073C4.25446 9.56701 4.16667 9.77897 4.16667 9.99998V15C4.16667 15.221 4.25446 15.433 4.41074 15.5892C4.56702 15.7455 4.77899 15.8333 5 15.8333H5.83333V9.16665ZM9.6875 3.39998L7.5675 8.34749C7.53788 8.4164 7.51769 8.489 7.5075 8.56332L7.5 8.67498V15.8333H13.7467C14.1141 15.8334 14.4713 15.7119 14.7626 15.488C15.0539 15.264 15.2631 14.9501 15.3575 14.595L15.3867 14.465L16.145 10.2983C16.1869 10.0683 16.1799 9.83207 16.1246 9.60493C16.0692 9.37778 15.9667 9.16483 15.8236 8.9799C15.6806 8.79498 15.5003 8.64221 15.2943 8.53153C15.0884 8.42085 14.8615 8.35474 14.6283 8.33749L14.5042 8.33332H12.5C12.0795 8.33345 11.6745 8.17465 11.3662 7.88874C11.0579 7.60283 10.869 7.21095 10.8375 6.79165L10.8333 6.66665V4.58332C10.8333 4.12248 10.4717 3.65332 9.82917 3.44165L9.6875 3.39998Z" fill="#23252B"/>
</svg>
