<svg width="40" height="40" viewBox="0 0 40 40" fill="none" xmlns="http://www.w3.org/2000/svg">
<path d="M21.3451 3.85525L24.9641 11.1882C25.3283 11.9261 26.0322 12.4375 26.8465 12.5558L34.9389 13.7317C36.1692 13.9105 36.6605 15.4225 35.7702 16.2903L29.9145 21.9982C29.3253 22.5725 29.0564 23.4 29.1955 24.211L30.5779 32.2707C30.788 33.4961 29.5019 34.4305 28.4014 33.852L21.1634 30.0467C20.435 29.6638 19.565 29.6638 18.8366 30.0467L11.5986 33.852C10.4981 34.4305 9.21198 33.4961 9.42214 32.2707L10.8045 24.211C10.9436 23.4 10.6747 22.5725 10.0855 21.9982L4.22977 16.2903C3.3395 15.4225 3.83076 13.9105 5.0611 13.7317L13.1535 12.5558C13.9678 12.4375 14.6717 11.9261 15.0359 11.1882L18.6549 3.85525C19.2051 2.74039 20.7949 2.74039 21.3451 3.85525Z" fill="white" stroke="#FDC912"/>
</svg>
