<svg width="34" height="33" viewBox="0 0 34 33" fill="none" xmlns="http://www.w3.org/2000/svg">
<path d="M15.6549 1.85525C16.2051 0.740386 17.7949 0.740386 18.3451 1.85525L21.9641 9.18823C22.3283 9.92609 23.0322 10.4375 23.8465 10.5558L31.9389 11.7317C33.1692 11.9105 33.6605 13.4225 32.7702 14.2903L26.9145 19.9982C26.3253 20.5725 26.0564 21.4 26.1955 22.211L27.5779 30.2707C27.788 31.4961 26.5019 32.4305 25.4014 31.852L18.1634 28.0467C17.435 27.6638 16.565 27.6638 15.8366 28.0467L8.59857 31.852C7.49813 32.4305 6.21198 31.4961 6.42214 30.2707L7.80449 22.211C7.94359 21.4 7.67472 20.5725 7.0855 19.9982L1.22977 14.2903C0.3395 13.4225 0.830764 11.9105 2.06109 11.7317L10.1535 10.5558C10.9678 10.4375 11.6717 9.92609 12.0359 9.18823L15.6549 1.85525Z" fill="#FDC912" stroke="#FDC912"/>
</svg>
