<svg width="20" height="20" viewBox="0 0 20 20" fill="none" xmlns="http://www.w3.org/2000/svg">
<path fill-rule="evenodd" clip-rule="evenodd" d="M15.4167 1.66669C15.8979 1.66664 16.3717 1.78567 16.7957 2.01317C17.2198 2.24067 17.581 2.56956 17.8471 2.97053C18.1132 3.3715 18.276 3.83209 18.3209 4.31123C18.3658 4.79037 18.2914 5.27317 18.1045 5.7166C17.9175 6.16003 17.6237 6.5503 17.2493 6.85263C16.8748 7.15495 16.4314 7.35993 15.9585 7.44929C15.4857 7.53866 14.998 7.50962 14.5391 7.36478C14.0802 7.21995 13.6642 6.9638 13.3283 6.61919L9.725 8.50835C9.9025 8.97085 10 9.47502 10 10C10.0006 10.5099 9.90734 11.0155 9.725 11.4917L13.3283 13.3809C13.8177 12.8795 14.4712 12.5711 15.1693 12.512C15.8673 12.4529 16.5634 12.647 17.1301 13.0588C17.6968 13.4707 18.0964 14.0728 18.2557 14.755C18.415 15.4372 18.3234 16.154 17.9977 16.7743C17.672 17.3945 17.1339 17.8768 16.4818 18.133C15.8298 18.3891 15.1073 18.402 14.4465 18.1693C13.7857 17.9365 13.2308 17.4737 12.8831 16.8655C12.5355 16.2572 12.4184 15.5442 12.5533 14.8567L8.82416 12.9017C8.2466 13.497 7.50449 13.9065 6.69285 14.0775C5.88121 14.2486 5.03698 14.1735 4.26826 13.8619C3.49955 13.5503 2.84133 13.0164 2.37788 12.3284C1.91444 11.6405 1.66687 10.8299 1.66687 10.0004C1.66687 9.17096 1.91444 8.36037 2.37788 7.67244C2.84133 6.98451 3.49955 6.45056 4.26826 6.13896C5.03698 5.82735 5.88121 5.75228 6.69285 5.92334C7.50449 6.09441 8.2466 6.50383 8.82416 7.09919L12.5533 5.14335C12.4707 4.72079 12.4826 4.28517 12.5882 3.86775C12.6939 3.45034 12.8906 3.0615 13.1643 2.72913C13.4381 2.39677 13.782 2.12913 14.1714 1.94544C14.5608 1.76175 14.9861 1.66655 15.4167 1.66669ZM15.4167 14.1667C15.0851 14.1667 14.7672 14.2984 14.5328 14.5328C14.2984 14.7672 14.1667 15.0852 14.1667 15.4167C14.1667 15.7482 14.2984 16.0662 14.5328 16.3006C14.7672 16.535 15.0851 16.6667 15.4167 16.6667C15.7482 16.6667 16.0661 16.535 16.3005 16.3006C16.535 16.0662 16.6667 15.7482 16.6667 15.4167C16.6667 15.0852 16.535 14.7672 16.3005 14.5328C16.0661 14.2984 15.7482 14.1667 15.4167 14.1667ZM5.83333 7.50002C5.17029 7.50002 4.53441 7.76341 4.06557 8.23225C3.59672 8.70109 3.33333 9.33698 3.33333 10C3.33333 10.6631 3.59672 11.2989 4.06557 11.7678C4.53441 12.2366 5.17029 12.5 5.83333 12.5C6.49637 12.5 7.13226 12.2366 7.6011 11.7678C8.06994 11.2989 8.33333 10.6631 8.33333 10C8.33333 9.33698 8.06994 8.70109 7.6011 8.23225C7.13226 7.76341 6.49637 7.50002 5.83333 7.50002ZM15.4167 3.33335C15.2525 3.33335 15.09 3.36569 14.9383 3.4285C14.7867 3.49132 14.6489 3.5834 14.5328 3.69947C14.4167 3.81554 14.3246 3.95334 14.2618 4.105C14.199 4.25666 14.1667 4.4192 14.1667 4.58335C14.1667 4.74751 14.199 4.91005 14.2618 5.06171C14.3246 5.21337 14.4167 5.35116 14.5328 5.46724C14.6489 5.58331 14.7867 5.67539 14.9383 5.7382C15.09 5.80102 15.2525 5.83335 15.4167 5.83335C15.7482 5.83335 16.0661 5.70166 16.3005 5.46724C16.535 5.23282 16.6667 4.91487 16.6667 4.58335C16.6667 4.25183 16.535 3.93389 16.3005 3.69947C16.0661 3.46505 15.7482 3.33335 15.4167 3.33335Z" fill="#23252B"/>
</svg>
