<svg width="32" height="32" viewBox="0 0 32 32" fill="none" xmlns="http://www.w3.org/2000/svg">
<path d="M19 4C19 3.44772 19.4477 3 20 3H21.3333C25.5675 3 29 6.43248 29 10.6667V12C29 12.5523 28.5523 13 28 13C27.4477 13 27 12.5523 27 12V10.6667C27 7.53705 24.4629 5 21.3333 5H20C19.4477 5 19 4.55228 19 4Z" fill="#6B6B6B"/>
<path d="M3 10.6667C3 6.43248 6.43248 3 10.6667 3H12C12.5523 3 13 3.44772 13 4C13 4.55228 12.5523 5 12 5H10.6667C7.53705 5 5 7.53705 5 10.6667V12C5 12.5523 4.55228 13 4 13C3.44772 13 3 12.5523 3 12V10.6667Z" fill="#6B6B6B"/>
<path d="M4 19C4.55228 19 5 19.4477 5 20V21.3333C5 24.4629 7.53705 27 10.6667 27H12C12.5523 27 13 27.4477 13 28C13 28.5523 12.5523 29 12 29H10.6667C6.43248 29 3 25.5675 3 21.3333V20C3 19.4477 3.44772 19 4 19Z" fill="#6B6B6B"/>
<path d="M28 19C28.5523 19 29 19.4477 29 20V21.3333C29 25.5675 25.5675 29 21.3333 29H20C19.4477 29 19 28.5523 19 28C19 27.4477 19.4477 27 20 27H21.3333C24.4629 27 27 24.4629 27 21.3333V20C27 19.4477 27.4477 19 28 19Z" fill="#6B6B6B"/>
<g clip-path="url(#clip0_6_242)">
<path d="M23.9739 8.52798C23.9103 8.33439 23.7408 8.19664 23.5383 8.17379C23.5243 8.17229 22.3606 8.04123 20.6757 8.04117C19.5751 8.0412 18.2521 8.09701 16.8789 8.28351C15.849 8.42354 14.7908 8.63692 13.7754 8.95873C13.014 9.2002 12.2765 9.50273 11.5942 9.88379C11.0826 10.1696 10.6019 10.4999 10.1677 10.8823C9.5165 11.4553 8.96997 12.1481 8.59041 12.9721C8.21028 13.7957 7.99956 14.7467 8 15.8229C8 16.5528 8.096 17.3407 8.29819 18.1913C8.48509 18.9776 8.76284 19.8179 9.14041 20.7175C8.74847 21.5286 8.40669 22.3841 8.12803 23.2852C8.04319 23.5595 8.19675 23.8506 8.47106 23.9354C8.74531 24.0202 9.03647 23.8667 9.12131 23.5924C9.35309 22.8431 9.63138 22.1268 9.94794 21.4421C10.7352 21.8348 11.534 22.1449 12.3287 22.3667C13.2869 22.6341 14.2391 22.7738 15.1571 22.7739C16.0256 22.7739 16.8639 22.6486 17.6435 22.3856C18.228 22.1884 18.7793 21.9135 19.2819 21.5577C20.0362 21.0243 20.6787 20.3081 21.1627 19.4163C21.6473 18.5242 21.9745 17.4589 22.1166 16.2212C22.4813 13.0427 22.9464 11.2098 23.3062 10.1955C23.4859 9.68832 23.6389 9.38611 23.7367 9.22192C23.7855 9.13979 23.8205 9.09214 23.8378 9.07011C23.8422 9.06461 23.8454 9.06067 23.8475 9.05826L23.8502 9.05514L23.8501 9.05504C23.9867 8.91654 24.0351 8.71411 23.9739 8.52798ZM9.78097 19.5049C9.58153 18.9571 9.42572 18.4394 9.30963 17.951C9.12372 17.1687 9.03966 16.4614 9.03966 15.8229C9.03978 15.0784 9.15328 14.4274 9.35506 13.8513C9.53188 13.3471 9.77656 12.8994 10.0792 12.4961C10.344 12.1435 10.6536 11.8251 11.0016 11.5372C11.6102 11.0335 12.3375 10.6235 13.1347 10.2955C14.3302 9.80298 15.6808 9.49642 16.9997 9.31636C18.3186 9.13592 19.6053 9.08076 20.6757 9.08082C21.0802 9.08082 21.4536 9.08867 21.7866 9.10045C20.416 9.74736 18.5491 10.748 16.6075 12.155C16.6099 12.1264 16.6126 12.0974 16.6156 12.0681C16.6477 11.7542 16.7121 11.3974 16.8302 11.036C16.9193 10.7631 16.7704 10.4696 16.4975 10.3805C16.2246 10.2914 15.9311 10.4404 15.842 10.7132C15.6961 11.16 15.6197 11.5884 15.5814 11.9622C15.5559 12.2114 15.5474 12.4364 15.5474 12.6268C15.5474 12.722 15.5495 12.8085 15.5528 12.8851C15.5538 12.9089 15.5549 12.9315 15.5561 12.9534C15.3067 13.1518 15.0573 13.3567 14.8088 13.5687C13.8907 14.3524 12.9853 15.2308 12.1376 16.2086C12.1323 16.1011 12.1294 15.9943 12.1294 15.8886C12.1294 15.6445 12.1429 15.4058 12.1672 15.1737C12.2376 14.4994 12.3997 13.8815 12.5855 13.3584C12.6816 13.0879 12.5401 12.7907 12.2696 12.6946C11.9991 12.5986 11.7019 12.74 11.6058 13.0105C11.3978 13.5966 11.214 14.2929 11.1332 15.0655C11.1054 15.3314 11.0898 15.6063 11.0898 15.8886C11.0898 16.3504 11.1319 16.8325 11.2297 17.3265C11.1267 17.4622 11.0245 17.5989 10.9241 17.7379C10.5189 18.2987 10.1358 18.8876 9.78097 19.5049ZM22.0172 10.8429C21.6993 12.0015 21.3622 13.6781 21.0836 16.1027C20.9686 17.1034 20.7243 17.9517 20.382 18.6606C20.1251 19.1925 19.8133 19.6465 19.4559 20.0309C18.9195 20.6072 18.2798 21.0294 17.5555 21.3119C16.8315 21.5939 16.0219 21.7343 15.157 21.7343C14.3448 21.7344 13.4847 21.6102 12.6081 21.3654C11.8811 21.1625 11.1429 20.8765 10.4115 20.5117C10.8199 19.7481 11.2756 19.0268 11.7668 18.3466C11.8404 18.2447 11.915 18.144 11.9901 18.044C12.1129 18.0877 12.3015 18.151 12.5444 18.2209C12.9847 18.3475 13.6024 18.4958 14.3274 18.5855C14.725 18.6347 15.155 18.6662 15.6058 18.6663C15.977 18.6663 16.3622 18.6449 16.755 18.594C17.0397 18.5572 17.2406 18.2965 17.2038 18.0118C17.1669 17.727 16.9062 17.5261 16.6215 17.563C16.2778 17.6075 15.937 17.6266 15.6058 17.6266C15.2035 17.6266 14.8157 17.5984 14.455 17.5538C13.7974 17.4725 13.2305 17.3366 12.8318 17.2218C12.7774 17.2061 12.7264 17.1909 12.6784 17.1763C13.76 15.8841 14.9578 14.761 16.1628 13.7988C16.2033 13.8156 16.2471 13.8332 16.2946 13.8515C16.5689 13.9567 16.9603 14.0804 17.4463 14.1629C17.7703 14.2179 18.1364 14.2545 18.537 14.2545C18.7374 14.2545 18.9463 14.2453 19.1628 14.2248C19.4487 14.1977 19.6584 13.944 19.6313 13.6582C19.6042 13.3724 19.3505 13.1627 19.0647 13.1898C18.8818 13.2071 18.7057 13.2148 18.5371 13.2148C18.1997 13.2148 17.8919 13.184 17.6203 13.1379C17.4524 13.1094 17.2986 13.075 17.1601 13.0386C17.2644 12.9626 17.3687 12.8875 17.4727 12.8139C19.2725 11.5387 20.9969 10.6205 22.2656 10.0238C22.1851 10.2631 22.1019 10.5345 22.0172 10.8429Z" fill="#6B6B6B"/>
</g>
<defs>
<clipPath id="clip0_6_242">
<rect width="16" height="16" fill="white" transform="translate(8 8)"/>
</clipPath>
</defs>
</svg>
