<svg width="32" height="32" viewBox="0 0 32 32" fill="none" xmlns="http://www.w3.org/2000/svg">
<path d="M20 3C19.4477 3 19 3.44772 19 4C19 4.55228 19.4477 5 20 5H21.3333C24.4629 5 27 7.53705 27 10.6667V12C27 12.5523 27.4477 13 28 13C28.5523 13 29 12.5523 29 12V10.6667C29 6.43248 25.5675 3 21.3333 3H20Z" fill="#1CAE54"/>
<path d="M10.6667 3C6.43248 3 3 6.43248 3 10.6667V12C3 12.5523 3.44772 13 4 13C4.55228 13 5 12.5523 5 12V10.6667C5 7.53705 7.53705 5 10.6667 5H12C12.5523 5 13 4.55228 13 4C13 3.44772 12.5523 3 12 3H10.6667Z" fill="#1CAE54"/>
<path d="M1.3335 17.6667C0.781211 17.6667 0.333496 18.1144 0.333496 18.6667C0.333496 19.2189 0.781211 19.6667 1.3335 19.6667H3.05707C3.02022 19.7709 3.00016 19.8831 3.00016 20V21.3333C3.00016 25.5675 6.43264 29 10.6668 29H12.0002C12.5524 29 13.0002 28.5523 13.0002 28C13.0002 27.4477 12.5524 27 12.0002 27H10.6668C7.53722 27 5.00016 24.4629 5.00016 21.3333V20C5.00016 19.8831 4.98011 19.7709 4.94326 19.6667H27.0571C27.0202 19.7709 27.0002 19.8831 27.0002 20V21.3333C27.0002 24.4629 24.4631 27 21.3335 27H20.0002C19.4479 27 19.0002 27.4477 19.0002 28C19.0002 28.5523 19.4479 29 20.0002 29H21.3335C25.5676 29 29.0002 25.5675 29.0002 21.3333V20C29.0002 19.8831 28.9802 19.7709 28.9432 19.6667H30.6668C31.2191 19.6667 31.6668 19.2189 31.6668 18.6667C31.6668 18.1144 31.2191 17.6667 30.6668 17.6667H1.3335Z" fill="#1CAE54"/>
</svg>
